<?xml version="1.0" encoding="utf-8"?>
<!-- Generator: Adobe Illustrator 21.0.0, SVG Export Plug-In . SVG Version: 6.00 Build 0)  -->
<svg version="1.1" id="Layer_1" xmlns="http://www.w3.org/2000/svg" xmlns:xlink="http://www.w3.org/1999/xlink" x="0px" y="0px"
	 viewBox="0 0 231.4 28.9" style="enable-background:new 0 0 231.4 28.9;" xml:space="preserve">
<style type="text/css">
	.st0{fill:#FFFFFF;}
</style>
<g>
	<rect x="86.3" y="18.8" class="st0" width="90.2" height="1.2"/>
	<path class="st0" d="M86.2,15v-0.5l1-0.1c0.9-0.1,1-0.5,1-3.5V4.3c0-3-0.2-3.4-1-3.5l-1-0.1V0.2h6.3v0.5l-1,0.1
		c-0.9,0.1-1,0.5-1,3.5v6.5c0,3,0.1,3.4,1,3.5l1,0.1V15H86.2z"/>
	<path class="st0" d="M98,3.1L98,3.1l-0.1,7.7c0,3.2,0.2,3.5,1.2,3.5l1,0.1V15h-5.7v-0.5l1-0.1c1-0.1,1.2-0.4,1.2-3.5V2.6
		c0-1.2-0.6-1.7-1.7-1.8l-0.7-0.1V0.2H98c0.3,0,0.8,0.4,1.3,0.9c2.3,2.5,5.8,6.5,8.4,9.7h0.1l-0.1-7c0-2.6-0.3-2.9-1.2-3l-1-0.1V0.2
		h5.5v0.5l-0.9,0.1c-1,0.1-1.1,0.6-1.1,3.5V15c-0.2,0.1-0.6,0.2-0.9,0.2C105.2,11.3,102.1,7.8,98,3.1"/>
	<path class="st0" d="M118.7,4L118.7,4c-0.8,1.5-1.5,3.4-2.2,4.9h4.1L118.7,4z M111.4,15v-0.5c1.2-0.3,1.7-0.5,2.3-2L119,0.1
		c0.2-0.1,0.4-0.1,0.5-0.1c0.9,2.3,4.8,12.2,5.6,13.5c0.5,0.8,0.9,0.9,1.6,1V15h-6.4v-0.5h0.8c0.9-0.1,1.2-0.3,1.2-0.8
		c0-0.4-0.2-1-0.6-2.1L121,9.9c-0.6,0-4.5,0-4.9,0l-0.5,1.3c-0.3,0.8-0.8,2-0.8,2.4c0,0.6,0.4,0.7,1.9,0.9V15H111.4z"/>
	<path class="st0" d="M132.3,12.1c0,1.6,0.5,1.9,2.2,1.9c3.7,0,6.6-2.2,6.6-6.5c0-4.2-2.4-6.3-6.3-6.3c-0.7,0-1.7,0.1-2.5,0.3V12.1z
		 M128,14.5l1-0.1c0.9-0.1,1-0.5,1-3.5V4.3c0-3-0.2-3.4-1-3.5l-1-0.1V0.2c3.1,0,5.3-0.1,7.1-0.1c4.4,0,8.5,1.9,8.5,7.1
		c0,4.5-3.4,7.7-9,7.7H128V14.5z"/>
	<path class="st0" d="M145.4,15v-0.5l1-0.1c0.9-0.1,1-0.5,1-3.5V4.3c0-3-0.2-3.4-1-3.5l-1-0.1V0.2h9.7c0,0.3,0.1,0.6,0.1,0.9
		c0,0.9-0.1,1.9-0.3,2.7h-0.5c-0.1-1.7-0.5-2.6-2.2-2.6c-0.8,0-1.9,0.1-2.4,0.2V7h1.1c2.1,0,2.5-0.2,2.7-1.3h0.5l-0.2,4.2h-0.5
		l-0.1-0.8C153,8.2,152.6,8,150.7,8h-1v2.9c0,3,0.3,3.2,1.6,3.2h1.1c1.7,0,2.4-0.9,2.9-2.5h0.5c0,1.1-0.2,2.5-0.5,3.5L145.4,15
		L145.4,15z"/>
	<path class="st0" d="M157.1,15v-0.5l0.9-0.1c0.9-0.1,1.1-0.5,1.3-2c0.1-0.9,0.8-7.9,1-10.4c-0.4-0.7-0.8-1.2-1.3-1.2l-0.8-0.1V0.2
		h3.3c0.7,0,2.9,4.3,5.4,11h0.1c0.8-2,3.5-8.8,4.1-11h4.4v0.5l-0.9,0.1c-0.7,0.1-1,0.5-1,1.3c0,1,0.7,9.3,0.8,10.3
		c0.2,1.3,0.3,2,1.1,2l1,0.1V15h-6.2v-0.5l0.9-0.1c0.9-0.1,1-0.3,1-1.1c0-1-0.5-6.3-0.8-9.7h-0.1c-1.3,3.2-3.1,7.6-4.3,10.9
		c-0.2,0-0.9,0.1-1.2,0.1c-1.7-4.8-3.4-8.6-4.5-10.8h-0.1c-0.3,3.4-0.7,8.6-0.7,9.5s0.2,1.1,1.2,1.1l0.9,0.1V15H157.1z"/>
	<path class="st0" d="M85.9,28.8v-0.1h0.3c0.3,0,0.3-0.2,0.3-1.1v-2c0-0.9,0-1-0.3-1.1h-0.3v-0.2h1.9v0.2h-0.3
		c-0.3,0-0.3,0.2-0.3,1.1v2c0,0.9,0,1,0.3,1.1h0.3v0.1H85.9z"/>
	<path class="st0" d="M89.5,25.1L89.5,25.1v2.4c0,1,0.1,1.1,0.4,1.1h0.3v0.1h-1.7v-0.1h0.3c0.3,0,0.4-0.1,0.4-1.1V25
		c0-0.4-0.2-0.5-0.5-0.6h-0.2v-0.2h1.1c0.1,0,0.2,0.1,0.4,0.3c0.7,0.8,1.8,2,2.6,3l0,0v-2.1c0-0.8-0.1-0.9-0.4-0.9h-0.3v-0.2h1.7
		v0.2h-0.3c-0.3,0-0.3,0.2-0.3,1.1v3.3c-0.1,0-0.2,0-0.3,0.1C91.7,27.7,90.7,26.6,89.5,25.1"/>
	<path class="st0" d="M94,28.7c0-0.2-0.1-0.7-0.1-1.1h0.2c0.1,0.6,0.5,0.9,1.1,0.9c0.5,0,0.8-0.3,0.8-0.7c0-0.4-0.2-0.6-0.6-0.9
		L95,26.6c-0.5-0.4-0.9-0.7-0.9-1.3c0-0.7,0.6-1.2,1.3-1.2c0.5,0,0.9,0.2,1.2,0.2c0,0.3,0,0.8-0.1,1.1h-0.2c0-0.7-0.4-1-0.9-1
		c-0.4,0-0.7,0.3-0.7,0.6c0,0.4,0.3,0.6,0.7,0.9l0.5,0.3c0.7,0.5,0.9,0.8,0.9,1.3c0,0.8-0.7,1.3-1.5,1.3
		C94.8,28.9,94.3,28.7,94,28.7"/>
	<path class="st0" d="M101.2,24.3c0.1,0.3,0.1,0.9,0.1,1.2h-0.2c-0.2-0.7-0.3-0.9-0.7-0.9c-0.2,0-0.6,0-0.7,0v2.9c0,1,0,1,0.3,1.1
		h0.3v0.1h-2v-0.1h0.3c0.3,0,0.3-0.1,0.3-1.1v-2.9c-0.2,0-0.5,0-0.7,0c-0.4,0-0.6,0.3-0.8,0.9h-0.2c0-0.3,0.1-1,0.1-1.2H101.2z"/>
	<path class="st0" d="M101.9,28.8v-0.1h0.3c0.3,0,0.3-0.2,0.3-1.1v-2c0-0.9,0-1-0.3-1.1h-0.3v-0.2h1.9v0.2h-0.3
		c-0.3,0-0.3,0.2-0.3,1.1v2c0,0.9,0,1,0.3,1.1h0.3v0.1H101.9z"/>
	<path class="st0" d="M108.3,24.3c0.1,0.3,0.1,0.9,0.1,1.2h-0.2c-0.2-0.7-0.3-0.9-0.7-0.9c-0.2,0-0.6,0-0.7,0v2.9c0,1,0,1,0.3,1.1
		h0.3v0.1h-2v-0.1h0.3c0.3,0,0.3-0.1,0.3-1.1v-2.9c-0.2,0-0.5,0-0.7,0c-0.4,0-0.6,0.3-0.8,0.9h-0.2c0-0.3,0.1-1,0.1-1.2H108.3z"/>
	<path class="st0" d="M109.4,26.9v-1.4c0-0.9-0.1-1.1-0.3-1.1h-0.3v-0.2h1.9v0.2h-0.3c-0.3,0-0.3,0.2-0.3,1.1v1.3
		c0,1.2,0.4,1.7,1.3,1.7s1.2-0.6,1.2-1.7v-1.3c0-0.9,0-1.1-0.3-1.1H112v-0.2h1.8v0.2h-0.2c-0.3,0-0.3,0.2-0.3,1.1v1.4
		c0,1.1-0.6,1.9-1.8,1.9C110.2,28.9,109.4,28.2,109.4,26.9"/>
	<path class="st0" d="M118,24.3c0.1,0.3,0.1,0.9,0.1,1.2H118c-0.2-0.7-0.3-0.9-0.7-0.9c-0.2,0-0.6,0-0.7,0v2.9c0,1,0,1,0.3,1.1h0.3
		v0.1h-2v-0.1h0.3c0.3,0,0.3-0.1,0.3-1.1v-2.9c-0.2,0-0.5,0-0.7,0c-0.4,0-0.6,0.3-0.8,0.9h-0.2c0-0.3,0.1-1,0.1-1.2H118z"/>
	<path class="st0" d="M122.8,26.5c0-1-0.5-2-1.7-2c-1.1,0-1.6,0.9-1.6,2s0.5,2.1,1.7,2.1C122.3,28.5,122.8,27.6,122.8,26.5
		 M118.8,26.5c0-1.5,1.1-2.4,2.4-2.4c1.4,0,2.4,1,2.4,2.3c0,1.5-1.1,2.4-2.4,2.4C119.7,28.9,118.8,27.9,118.8,26.5"/>
	<path class="st0" d="M127.1,25.1L127.1,25.1v2.4c0,1,0.1,1.1,0.4,1.1h0.3v0.1H126v-0.1h0.3c0.3,0,0.4-0.1,0.4-1.1V25
		c0-0.4-0.2-0.5-0.5-0.6H126v-0.2h1.1c0.1,0,0.2,0.1,0.4,0.3c0.7,0.8,1.8,2,2.6,3l0,0v-2.1c0-0.8-0.1-0.9-0.4-0.9h-0.3v-0.2h1.7v0.2
		h-0.3c-0.3,0-0.3,0.2-0.3,1.1v3.3c-0.1,0-0.2,0-0.3,0.1C129.3,27.7,128.4,26.6,127.1,25.1"/>
	<path class="st0" d="M133.4,25.4L133.4,25.4c-0.2,0.5-0.5,1-0.7,1.5h1.3L133.4,25.4z M131.2,28.8v-0.1c0.4-0.1,0.5-0.2,0.7-0.6
		l1.6-3.8c0.1,0,0.1,0,0.1,0c0.3,0.7,1.5,3.7,1.7,4.1c0.1,0.2,0.3,0.3,0.5,0.3v0.2h-1.9v-0.1h0.2c0.3,0,0.4-0.1,0.4-0.2
		s-0.1-0.3-0.2-0.6l-0.2-0.5c-0.2,0-1.4,0-1.5,0l-0.2,0.4c-0.1,0.2-0.2,0.6-0.2,0.7c0,0.2,0.1,0.2,0.6,0.3V29h-1.6L131.2,28.8
		L131.2,28.8z"/>
	<path class="st0" d="M138.6,28.9c-1.4,0-2.5-0.7-2.5-2.3c0-1.5,1-2.4,2.5-2.4c0.6,0,1.3,0.2,1.6,0.2c0,0.1,0,0.3,0,0.4
		c0,0.3-0.1,0.9-0.1,1H140c0-0.9-0.5-1.3-1.3-1.3c-1.1,0-1.8,0.8-1.8,2c0,1.3,0.8,2,1.8,2c0.8,0,1.2-0.5,1.3-1h0.2
		c0,0.2-0.1,0.7-0.2,1C139.7,28.7,139.2,28.9,138.6,28.9"/>
	<path class="st0" d="M141,28.8v-0.1h0.3c0.3,0,0.3-0.2,0.3-1.1v-2c0-0.9,0-1-0.3-1.1H141v-0.2h1.9v0.2h-0.3c-0.3,0-0.3,0.2-0.3,1.1
		v2c0,0.9,0,1,0.3,1.1h0.3v0.1H141z"/>
	<path class="st0" d="M147.5,26.5c0-1-0.5-2-1.7-2c-1.1,0-1.6,0.9-1.6,2s0.5,2.1,1.7,2.1C147,28.5,147.5,27.6,147.5,26.5
		 M143.5,26.5c0-1.5,1.1-2.4,2.4-2.4c1.4,0,2.4,1,2.4,2.3c0,1.5-1.1,2.4-2.4,2.4C144.4,28.9,143.5,27.9,143.5,26.5"/>
	<path class="st0" d="M149.9,25.1L149.9,25.1v2.4c0,1,0.1,1.1,0.4,1.1h0.3v0.1h-1.7v-0.1h0.3c0.3,0,0.4-0.1,0.4-1.1V25
		c0-0.4-0.2-0.5-0.5-0.6h-0.2v-0.2h1.1c0.1,0,0.2,0.1,0.4,0.3c0.7,0.8,1.8,2,2.6,3l0,0v-2.1c0-0.8-0.1-0.9-0.4-0.9h-0.3v-0.2h1.7
		v0.2h-0.3c-0.3,0-0.3,0.2-0.3,1.1v3.3c-0.1,0-0.2,0-0.3,0.1C152.1,27.7,151.1,26.6,149.9,25.1"/>
	<path class="st0" d="M156.2,25.4L156.2,25.4c-0.2,0.5-0.5,1-0.7,1.5h1.3L156.2,25.4z M154,28.8v-0.1c0.4-0.1,0.5-0.2,0.7-0.6
		l1.6-3.8c0.1,0,0.1,0,0.1,0c0.3,0.7,1.5,3.7,1.7,4.1c0.1,0.2,0.3,0.3,0.5,0.3v0.2h-1.9v-0.1h0.2c0.3,0,0.4-0.1,0.4-0.2
		s-0.1-0.3-0.2-0.6l-0.2-0.5c-0.2,0-1.4,0-1.5,0l-0.2,0.4c-0.1,0.2-0.2,0.6-0.2,0.7c0,0.2,0.1,0.2,0.6,0.3V29H154V28.8z"/>
	<path class="st0" d="M159,28.6h0.3c0.3,0,0.3-0.2,0.3-1.1v-2c0-0.9,0-1.1-0.3-1.1H159v-0.2h1.9v0.2h-0.3c-0.3,0-0.3,0.2-0.3,1.1
		v1.9c0,0.9,0,1,0.4,1h0.5c0.5,0,0.7-0.3,0.9-0.9h0.2c0,0.3-0.1,0.9-0.2,1.2H159V28.6z"/>
	<path class="st0" d="M166,27.9c0,0.5,0.1,0.6,0.7,0.6c1.1,0,2-0.7,2-2s-0.7-1.9-1.9-1.9c-0.2,0-0.5,0-0.8,0.1V27.9z M164.7,28.6
		h0.3c0.3,0,0.3-0.2,0.3-1.1v-2c0-0.9,0-1-0.3-1.1h-0.3v-0.1c0.9,0,1.6,0,2.2,0c1.4,0,2.6,0.6,2.6,2.2c0,1.4-1,2.4-2.8,2.4h-2V28.6z
		"/>
	<path class="st0" d="M170,28.8v-0.1h0.3c0.3,0,0.3-0.2,0.3-1.1v-2c0-0.9,0-1.1-0.3-1.1H170v-0.2h3c0,0.1,0,0.2,0,0.3
		c0,0.3,0,0.6-0.1,0.8h-0.2c0-0.5-0.2-0.8-0.7-0.8c-0.3,0-0.6,0-0.7,0.1v1.7h0.3c0.7,0,0.8,0,0.8-0.4h0.2l-0.1,1.3h-0.2v-0.2
		c-0.1-0.3-0.2-0.3-0.8-0.3h-0.3v0.9c0,0.9,0.1,1,0.5,1h0.3c0.5,0,0.7-0.3,0.9-0.8h0.2c0,0.3-0.1,0.8-0.2,1.1H170V28.8z"/>
	<path class="st0" d="M173.8,28.6h0.3c0.3,0,0.3-0.2,0.3-1.1v-2c0-0.9,0-1.1-0.3-1.1h-0.3v-0.2h1.9v0.2h-0.3c-0.3,0-0.3,0.2-0.3,1.1
		v1.9c0,0.9,0,1,0.4,1h0.5c0.5,0,0.7-0.3,0.9-0.9h0.2c0,0.3-0.1,0.9-0.2,1.2h-3.1L173.8,28.6L173.8,28.6z"/>
	<path class="st0" d="M179.4,28.8v-0.1h0.3c0.3,0,0.3-0.2,0.3-1.1v-2c0-0.9,0-1.1-0.3-1.1h-0.3v-0.2h3c0,0.1,0,0.2,0,0.3
		c0,0.3,0,0.6-0.1,0.8h-0.2c0-0.5-0.2-0.8-0.7-0.8c-0.3,0-0.6,0-0.7,0.1v1.7h0.3c0.7,0,0.8,0,0.8-0.4h0.2l-0.1,1.3h-0.2v-0.2
		c-0.1-0.3-0.2-0.3-0.8-0.3h-0.3v0.9c0,0.9,0.1,1,0.5,1h0.3c0.5,0,0.7-0.3,0.9-0.8h0.2c0,0.3-0.1,0.8-0.2,1.1h-2.9V28.8z"/>
	<path class="st0" d="M183,28.8v-0.1h0.3c0.3,0,0.3-0.2,0.4-0.6c0-0.3,0.2-2.4,0.3-3.2c-0.1-0.2-0.3-0.4-0.4-0.4h-0.3v-0.2h1
		c0.2,0,0.9,1.3,1.6,3.3l0,0c0.2-0.6,1.1-2.7,1.2-3.3h1.3v0.2h-0.3c-0.2,0-0.3,0.1-0.3,0.4s0.2,2.8,0.3,3.1c0,0.4,0.1,0.6,0.3,0.6
		h0.3v0.1H187v-0.1h0.3c0.3,0,0.3-0.1,0.3-0.3c0-0.3-0.1-1.9-0.2-3l0,0c-0.4,1-0.9,2.3-1.3,3.3c-0.1,0-0.3,0-0.4,0
		c-0.5-1.5-1-2.6-1.4-3.3l0,0c-0.1,1-0.2,2.6-0.2,2.9s0,0.3,0.4,0.3h0.3v0.1H183V28.8z"/>
	<path class="st0" d="M192,25.6c0-0.6-0.3-1-0.9-1c-0.2,0-0.4,0-0.5,0.1v2c0.1,0,0.2,0,0.3,0C191.7,26.6,192,26.2,192,25.6
		 M189.4,28.8v-0.1h0.3c0.3,0,0.3-0.2,0.3-1.1v-2c0-0.9,0-1-0.3-1.1h-0.3v-0.1c0.5,0,1.4,0,1.7,0c1.1,0,1.6,0.5,1.6,1.2
		c0,0.9-0.8,1.4-1.7,1.4c-0.1,0-0.2,0-0.4,0v0.7c0,0.9,0,1.1,0.3,1.1h0.4v0.1h-1.9L189.4,28.8L189.4,28.8z"/>
	<path class="st0" d="M195.2,26.6c0.3,0,0.6-0.4,0.6-1s-0.3-1-0.8-1c-0.2,0-0.4,0-0.5,0.1v1.9H195.2z M193.2,28.8v-0.1h0.3
		c0.3,0,0.3-0.2,0.3-1.1v-2c0-0.9,0-1-0.3-1.1h-0.3v-0.1c0.5,0,1.4,0,1.7,0c1.1,0,1.6,0.4,1.6,1.2c0,0.6-0.4,1-0.8,1.2
		c0.6,1.2,1.1,1.8,1.4,1.9c0.1,0.1,0.2,0.1,0.3,0.1V29c-0.5,0-0.8,0.1-0.9,0.1c-0.1,0-0.2,0-0.3-0.1c-0.3-0.2-0.6-0.8-1-1.6
		c-0.1-0.3-0.2-0.4-0.4-0.4h-0.4v0.7c0,0.9,0,1,0.3,1.1h0.4v0.1h-1.9L193.2,28.8L193.2,28.8z"/>
	<path class="st0" d="M197.9,28.8v-0.1h0.3c0.3,0,0.3-0.2,0.3-1.1v-2c0-0.9,0-1.1-0.3-1.1h-0.3v-0.2h3c0,0.1,0,0.2,0,0.3
		c0,0.3,0,0.6-0.1,0.8h-0.2c0-0.5-0.2-0.8-0.7-0.8c-0.3,0-0.6,0-0.7,0.1v1.7h0.3c0.7,0,0.8,0,0.8-0.4h0.2l-0.1,1.3h-0.2v-0.2
		c-0.1-0.3-0.2-0.3-0.8-0.3h-0.3v0.9c0,0.9,0.1,1,0.5,1h0.3c0.5,0,0.7-0.3,0.9-0.8h0.2c0,0.3-0.1,0.8-0.2,1.1h-2.9V28.8z"/>
	<path class="st0" d="M202.7,25.1L202.7,25.1v2.4c0,1,0.1,1.1,0.4,1.1h0.3v0.1h-1.7v-0.1h0.3c0.3,0,0.4-0.1,0.4-1.1V25
		c0-0.4-0.2-0.5-0.5-0.6h-0.2v-0.2h1.1c0.1,0,0.2,0.1,0.4,0.3c0.7,0.8,1.8,2,2.6,3l0,0v-2.1c0-0.8-0.1-0.9-0.4-0.9h-0.3v-0.2h1.7
		v0.2h-0.3c-0.3,0-0.3,0.2-0.3,1.1v3.3c-0.1,0-0.2,0-0.3,0.1C204.9,27.7,203.9,26.6,202.7,25.1"/>
	<path class="st0" d="M208.5,27.9c0,0.5,0.1,0.6,0.7,0.6c1.1,0,2-0.7,2-2s-0.7-1.9-1.9-1.9c-0.2,0-0.5,0-0.8,0.1V27.9z M207.2,28.6
		h0.3c0.3,0,0.3-0.2,0.3-1.1v-2c0-0.9,0-1-0.3-1.1h-0.3v-0.1c0.9,0,1.6,0,2.2,0c1.4,0,2.6,0.6,2.6,2.2c0,1.4-1,2.4-2.8,2.4h-2V28.6z
		"/>
	<path class="st0" d="M212.5,28.8v-0.1h0.3c0.3,0,0.3-0.2,0.3-1.1v-2c0-0.9,0-1.1-0.3-1.1h-0.3v-0.2h3c0,0.1,0,0.2,0,0.3
		c0,0.3,0,0.6-0.1,0.8h-0.2c0-0.5-0.2-0.8-0.7-0.8c-0.3,0-0.6,0-0.7,0.1v1.7h0.3c0.7,0,0.8,0,0.8-0.4h0.2l-0.1,1.3h-0.2v-0.2
		c-0.1-0.3-0.2-0.3-0.8-0.3h-0.3v0.9c0,0.9,0.1,1,0.5,1h0.3c0.5,0,0.7-0.3,0.9-0.8h0.2c0,0.3-0.1,0.8-0.2,1.1h-2.9V28.8z"/>
	<path class="st0" d="M217.6,27.9c0,0.5,0.1,0.6,0.7,0.6c1.1,0,2-0.7,2-2s-0.7-1.9-1.9-1.9c-0.2,0-0.5,0-0.8,0.1V27.9z M216.3,28.6
		h0.3c0.3,0,0.3-0.2,0.3-1.1v-2c0-0.9,0-1-0.3-1.1h-0.3v-0.1c0.9,0,1.6,0,2.2,0c1.4,0,2.6,0.6,2.6,2.2c0,1.4-1,2.4-2.8,2.4h-2V28.6z
		"/>
	<path class="st0" d="M225.9,26.5c0-1-0.5-2-1.7-2c-1.1,0-1.6,0.9-1.6,2s0.5,2.1,1.7,2.1C225.4,28.5,225.9,27.6,225.9,26.5
		 M221.9,26.5c0-1.5,1.1-2.4,2.4-2.4c1.4,0,2.4,1,2.4,2.3c0,1.5-1.1,2.4-2.4,2.4C222.8,28.9,221.9,27.9,221.9,26.5"/>
	<path class="st0" d="M229.2,26.6c0.3,0,0.6-0.4,0.6-1s-0.3-1-0.8-1c-0.2,0-0.4,0-0.5,0.1v1.9H229.2z M227.2,28.8v-0.1h0.3
		c0.3,0,0.3-0.2,0.3-1.1v-2c0-0.9,0-1-0.3-1.1h-0.3v-0.1c0.5,0,1.4,0,1.7,0c1.1,0,1.6,0.4,1.6,1.2c0,0.6-0.4,1-0.8,1.2
		c0.6,1.2,1.1,1.8,1.4,1.9c0.1,0.1,0.2,0.1,0.3,0.1V29c-0.5,0-0.8,0.1-0.9,0.1c-0.1,0-0.2,0-0.3-0.1c-0.3-0.2-0.6-0.8-1-1.6
		c-0.1-0.3-0.2-0.4-0.4-0.4h-0.4v0.7c0,0.9,0,1,0.3,1.1h0.4v0.1h-1.9L227.2,28.8L227.2,28.8z"/>
	<g>
		<path class="st0" d="M64,0.6c-7.6,0-13.8,6.2-13.8,13.9S56.4,28.4,64,28.4s13.8-6.2,13.8-13.9C77.8,6.9,71.6,0.6,64,0.6z
			 M69.7,9.8c-1.3-0.1-2.1,0.1-2.1,0.1S67.4,8.7,66.5,7c-0.6-1.2-1.3-2-1.3-2s1.5-0.3,2.9-0.1c1.1,0.1,2.3,0.6,2.3,0.6
			s0.6,0.7,1,1.9s0.5,2.6,0.5,2.6S71,9.9,69.7,9.8z"/>
		<path class="st0" d="M47.4,14.6c0-5.1,2.7-9.6,6.8-12c-2.1-1.2-4.5-1.9-7-1.9c-7.6,0-13.8,6.2-13.8,13.9s6.2,13.9,13.8,13.9
			c2.6,0,5-0.7,7-1.9C50.1,24.1,47.4,19.7,47.4,14.6z M44.4,6.7c-1.2-0.1,0.5-4.1,6.4-3.3c0,0-3,2-3.6,4.2C47.2,7.5,46,6.8,44.4,6.7
			z"/>
		<path class="st0" d="M30.7,14.6c0-5.1,2.7-9.6,6.8-12c-2.1-1.2-4.5-1.9-7-1.9c-7.6,0-13.8,6.2-13.8,13.9s6.2,13.9,13.8,13.9
			c2.6,0,5-0.7,7-1.9C33.4,24.1,30.7,19.7,30.7,14.6z M27.7,6.7c-1.2-0.1,0.5-4.1,6.4-3.3c0,0-3,2-3.6,4.2
			C30.6,7.5,29.3,6.8,27.7,6.7z"/>
		<path class="st0" d="M14,14.6c0-5.1,2.7-9.6,6.8-12c-2.1-1.2-4.5-1.9-7-1.9C6.2,0.6,0,6.9,0,14.6s6.2,13.9,13.8,13.9
			c2.6,0,5-0.7,7-1.9C16.8,24.1,14,19.7,14,14.6z M11.1,6.7c-1.2-0.1,0.5-4.1,6.4-3.3c0,0-3,2-3.6,4.2C13.9,7.5,12.6,6.8,11.1,6.7z"
			/>
	</g>
</g>
</svg>
