<?xml version="1.0" encoding="utf-8"?>
<!-- Generator: Adobe Illustrator 21.0.0, SVG Export Plug-In . SVG Version: 6.00 Build 0)  -->
<svg version="1.1" id="Layer_1" xmlns="http://www.w3.org/2000/svg" xmlns:xlink="http://www.w3.org/1999/xlink" x="0px" y="0px"
	 viewBox="0 0 130.6 233" style="enable-background:new 0 0 130.6 233;" xml:space="preserve">
<style type="text/css">
	.st0{fill:#F7931E;}
	.st1{fill:#FFFFFF;}
</style>
<g>
</g>
<g>
	<g>
		<path class="st0" d="M65.3,94.3c-16,0-29-13-29-29c0-16,13-29,29-29s29,13,29,29C94.3,81.3,81.3,94.3,65.3,94.3z M65.3,0
			C29.2,0,0,29.2,0,65.3C0,101.4,65.3,233,65.3,233s65.3-131.6,65.3-167.7C130.6,29.2,101.4,0,65.3,0z"/>
	</g>
	<circle class="st1" cx="65.5" cy="67" r="40"/>
	<g>
		<path class="st0" d="M63.4,67.7h-9.3v10.4h-6.9V67.7h-9.4v-6.2h9.4V51.1h6.9v10.3h9.3V67.7z"/>
		<path class="st0" d="M95.4,74.4v6.8H69.8V47.5h8.8v26.8H95.4z"/>
	</g>
</g>
</svg>
