<?xml version="1.0" encoding="utf-8"?>
<!-- Generator: Adobe Illustrator 21.0.0, SVG Export Plug-In . SVG Version: 6.00 Build 0)  -->
<svg version="1.1" id="Layer_1" xmlns="http://www.w3.org/2000/svg" xmlns:xlink="http://www.w3.org/1999/xlink" x="0px" y="0px"
	 viewBox="0 0 257.5 32.1" style="enable-background:new 0 0 257.5 32.1;" xml:space="preserve">
<style type="text/css">
	.st0{fill:#FFFFFF;}
</style>
<g>
	<rect x="96" y="20.9" class="st0" width="100.3" height="1.3"/>
	<path class="st0" d="M95.9,16.7v-0.5L97,16c1-0.1,1.2-0.6,1.2-3.9V4.8C98.2,1.5,98,1,97,0.9l-1.1-0.1V0.2h7v0.6l-1.1,0.1
		c-1,0.1-1.2,0.6-1.2,3.9v7.3c0,3.3,0.2,3.8,1.2,3.9l1.1,0.1v0.5H95.9z"/>
	<path class="st0" d="M109,3.4l-0.2,0l0,8.6c0,3.5,0.2,3.8,1.3,3.9l1.2,0.1v0.5H105v-0.5l1.1-0.1c1.1-0.1,1.3-0.5,1.3-3.9l0-9.2
		c0-1.3-0.7-1.9-1.8-2l-0.7-0.1V0.2h4.1c0.4,0,0.9,0.4,1.4,1c2.5,2.8,6.4,7.3,9.3,10.8l0.1,0l-0.1-7.8c0-2.9-0.3-3.3-1.3-3.4
		l-1.1-0.1V0.2h6.1v0.6l-1,0.1c-1.1,0.1-1.3,0.7-1.3,3.9v11.9c-0.2,0.1-0.7,0.2-1,0.2C117,12.6,113.6,8.6,109,3.4"/>
	<path class="st0" d="M132.1,4.4H132c-0.7,1.7-1.6,3.8-2.3,5.5l4.6,0L132.1,4.4z M123.9,16.7v-0.5c1.4-0.3,1.8-0.6,2.6-2.3l5.9-13.8
		C132.6,0,132.8,0,133,0c1,2.6,5.3,13.6,6.2,15c0.5,0.9,1,1,1.8,1.1v0.6h-7.1v-0.5l0.9,0c1-0.1,1.4-0.3,1.4-0.9
		c0-0.4-0.2-1.1-0.7-2.3l-0.7-1.9c-0.6,0-5,0-5.5,0l-0.6,1.4c-0.4,0.9-0.9,2.2-0.9,2.7c0,0.6,0.5,0.8,2.1,1v0.5H123.9z"/>
	<path class="st0" d="M147.2,13.4c0,1.7,0.5,2.2,2.5,2.2c4.1,0,7.4-2.4,7.4-7.2c0-4.7-2.7-7.1-7-7.1c-0.8,0-1.9,0.1-2.8,0.3V13.4z
		 M142.4,16.1l1.1-0.1c1-0.1,1.2-0.6,1.2-3.9V4.8c0-3.4-0.2-3.8-1.2-3.9l-1.1-0.1V0.3c3.4,0,5.9-0.1,7.9-0.1c4.9,0,9.5,2.1,9.5,7.9
		c0,5-3.8,8.6-10.1,8.6h-7.3V16.1z"/>
	<path class="st0" d="M161.8,16.7v-0.5l1.1-0.1c1-0.1,1.2-0.6,1.2-3.9V4.8c0-3.4-0.2-3.8-1.2-3.9l-1.1-0.1V0.2h10.8
		c0,0.3,0.1,0.7,0.1,1c0,1-0.1,2.1-0.3,3h-0.6c-0.1-1.9-0.6-2.9-2.5-2.9c-0.9,0-2.1,0.1-2.7,0.2v6.2h1.2c2.4,0,2.7-0.2,3-1.5h0.6
		l-0.2,4.7h-0.6l-0.2-0.9c-0.2-1-0.6-1.3-2.7-1.3h-1.1V12c0,3.4,0.3,3.6,1.8,3.6h1.2c1.9,0,2.7-1,3.2-2.8h0.6c0,1.2-0.3,2.8-0.6,3.9
		H161.8z"/>
	<path class="st0" d="M174.8,16.7v-0.5l1.1-0.1c1-0.1,1.2-0.6,1.4-2.3c0.1-1,0.9-8.8,1.1-11.5c-0.5-0.8-0.9-1.3-1.4-1.4L176,0.8V0.2
		h3.7c0.8,0,3.2,4.8,6,12.2h0.1c0.9-2.2,3.9-9.7,4.5-12.2h4.9v0.5l-1,0.1c-0.8,0.1-1.1,0.5-1.1,1.4c0,1.1,0.8,10.3,0.9,11.5
		c0.2,1.5,0.4,2.2,1.2,2.3l1.1,0.1v0.5h-6.9v-0.5l1-0.1c1-0.1,1.2-0.4,1.2-1.2c0-1.1-0.5-7-0.9-10.8h-0.2c-1.4,3.6-3.4,8.4-4.7,12.1
		c-0.2,0-1,0.1-1.3,0.1c-1.9-5.4-3.8-9.5-5-12h-0.1c-0.4,3.7-0.8,9.5-0.8,10.6c0,1,0.2,1.2,1.3,1.3l1,0.1v0.5H174.8z"/>
	<path class="st0" d="M95.6,32v-0.2l0.3,0c0.3,0,0.4-0.2,0.4-1.2v-2.2c0-1-0.1-1.2-0.4-1.2l-0.3,0V27h2.1v0.2l-0.3,0
		c-0.3,0-0.4,0.2-0.4,1.2v2.2c0,1,0,1.2,0.4,1.2l0.3,0V32H95.6z"/>
	<path class="st0" d="M99.6,28L99.6,28l0,2.6c0,1.1,0.1,1.2,0.4,1.2l0.4,0V32h-1.9v-0.2l0.3,0c0.3,0,0.4-0.1,0.4-1.2l0-2.8
		c0-0.4-0.2-0.6-0.6-0.6l-0.2,0V27h1.2c0.1,0,0.3,0.1,0.4,0.3c0.8,0.8,2,2.2,2.8,3.3l0,0l0-2.4c0-0.9-0.1-1-0.4-1l-0.3,0V27h1.9v0.2
		l-0.3,0c-0.3,0-0.4,0.2-0.4,1.2V32c-0.1,0-0.2,0.1-0.3,0.1C102,30.8,101,29.6,99.6,28"/>
	<path class="st0" d="M104.6,31.9c0-0.3-0.1-0.8-0.1-1.2h0.2c0.2,0.7,0.6,1,1.2,1c0.5,0,0.9-0.3,0.9-0.8c0-0.4-0.2-0.7-0.6-1
		l-0.6-0.4c-0.5-0.4-1-0.8-1-1.4c0-0.8,0.7-1.3,1.5-1.3c0.6,0,0.9,0.2,1.3,0.2c0,0.4,0,0.9-0.1,1.2h-0.2c0-0.7-0.4-1.1-1-1.1
		c-0.4,0-0.8,0.3-0.8,0.7c0,0.4,0.3,0.7,0.8,1l0.5,0.3c0.8,0.5,1,0.9,1,1.5c0,0.9-0.8,1.4-1.7,1.4C105.5,32.1,105,31.9,104.6,31.9"
		/>
	<path class="st0" d="M112.6,27c0.1,0.3,0.1,1,0.1,1.4h-0.2c-0.2-0.7-0.4-1-0.8-1c-0.3,0-0.6,0-0.8,0.1v3.2c0,1.1,0,1.1,0.4,1.2
		l0.4,0V32h-2.2v-0.2l0.4,0c0.3,0,0.4-0.1,0.4-1.2v-3.2c-0.2,0-0.6-0.1-0.8-0.1c-0.5,0-0.7,0.3-0.8,1h-0.2c0-0.4,0.1-1.1,0.1-1.4
		H112.6z"/>
	<path class="st0" d="M113.4,32v-0.2l0.3,0c0.3,0,0.4-0.2,0.4-1.2v-2.2c0-1-0.1-1.2-0.4-1.2l-0.3,0V27h2.1v0.2l-0.3,0
		c-0.3,0-0.4,0.2-0.4,1.2v2.2c0,1,0,1.2,0.4,1.2l0.3,0V32H113.4z"/>
	<path class="st0" d="M120.5,27c0.1,0.3,0.1,1,0.1,1.4h-0.2c-0.2-0.7-0.4-1-0.8-1c-0.3,0-0.6,0-0.8,0.1v3.2c0,1.1,0,1.1,0.4,1.2
		l0.4,0V32h-2.2v-0.2l0.4,0c0.3,0,0.4-0.1,0.4-1.2v-3.2c-0.2,0-0.6-0.1-0.8-0.1c-0.5,0-0.7,0.3-0.8,1h-0.2c0-0.4,0.1-1.1,0.1-1.4
		H120.5z"/>
	<path class="st0" d="M121.8,29.9v-1.5c0-1.1-0.1-1.2-0.3-1.2l-0.3,0V27h2.1v0.2l-0.4,0c-0.3,0-0.4,0.2-0.4,1.2v1.4
		c0,1.4,0.4,1.9,1.4,1.9c1,0,1.4-0.7,1.4-1.9v-1.5c0-1.1-0.1-1.2-0.4-1.2l-0.3,0V27h2v0.2l-0.3,0c-0.3,0-0.4,0.2-0.4,1.2V30
		c0,1.3-0.7,2.1-2,2.1C122.6,32.1,121.8,31.4,121.8,29.9"/>
	<path class="st0" d="M131.3,27c0.1,0.3,0.1,1,0.1,1.4h-0.2c-0.2-0.7-0.4-1-0.8-1c-0.3,0-0.6,0-0.8,0.1v3.2c0,1.1,0,1.1,0.4,1.2
		l0.4,0V32h-2.2v-0.2l0.4,0c0.3,0,0.4-0.1,0.4-1.2v-3.2c-0.2,0-0.6-0.1-0.8-0.1c-0.5,0-0.7,0.3-0.8,1H127c0-0.4,0.1-1.1,0.1-1.4
		H131.3z"/>
	<path class="st0" d="M136.6,29.5c0-1.1-0.6-2.3-1.9-2.3c-1.2,0-1.7,1-1.7,2.2c0,1.2,0.6,2.3,1.9,2.3
		C136.1,31.7,136.6,30.7,136.6,29.5 M132.1,29.5c0-1.6,1.2-2.7,2.7-2.7c1.6,0,2.6,1.1,2.6,2.6c0,1.6-1.2,2.6-2.7,2.6
		C133.2,32.1,132.1,31.1,132.1,29.5"/>
	<path class="st0" d="M141.4,28L141.4,28l0,2.6c0,1.1,0.1,1.2,0.4,1.2l0.4,0V32h-1.9v-0.2l0.3,0c0.3,0,0.4-0.1,0.4-1.2l0-2.8
		c0-0.4-0.2-0.6-0.6-0.6l-0.2,0V27h1.2c0.1,0,0.3,0.1,0.4,0.3c0.8,0.8,2,2.2,2.8,3.3l0,0l0-2.4c0-0.9-0.1-1-0.4-1l-0.3,0V27h1.9v0.2
		l-0.3,0c-0.3,0-0.4,0.2-0.4,1.2V32c-0.1,0-0.2,0.1-0.3,0.1C143.9,30.8,142.8,29.6,141.4,28"/>
	<path class="st0" d="M148.5,28.3L148.5,28.3c-0.3,0.5-0.5,1.2-0.7,1.7l1.4,0L148.5,28.3z M146,32v-0.2c0.4-0.1,0.6-0.2,0.8-0.7
		l1.8-4.2c0.1,0,0.1,0,0.2,0c0.3,0.8,1.6,4.1,1.9,4.6c0.2,0.3,0.3,0.3,0.5,0.3V32H149v-0.2l0.3,0c0.3,0,0.4-0.1,0.4-0.3
		c0-0.1-0.1-0.3-0.2-0.7l-0.2-0.6c-0.2,0-1.5,0-1.7,0l-0.2,0.4c-0.1,0.3-0.3,0.7-0.3,0.8c0,0.2,0.1,0.2,0.6,0.3V32H146z"/>
	<path class="st0" d="M154.2,32.1c-1.5,0-2.7-0.8-2.7-2.6c0-1.6,1.1-2.6,2.8-2.6c0.7,0,1.4,0.2,1.7,0.2c0,0.1,0,0.3,0,0.4
		c0,0.4-0.1,1-0.1,1.1h-0.2c0-1-0.6-1.4-1.5-1.4c-1.2,0-2,0.9-2,2.3c0,1.4,0.9,2.2,2,2.2c0.9,0,1.3-0.5,1.5-1.1h0.2
		c0,0.3-0.1,0.8-0.2,1.1C155.4,32,154.9,32.1,154.2,32.1"/>
	<path class="st0" d="M156.9,32v-0.2l0.3,0c0.3,0,0.4-0.2,0.4-1.2v-2.2c0-1-0.1-1.2-0.4-1.2l-0.3,0V27h2.1v0.2l-0.3,0
		c-0.3,0-0.4,0.2-0.4,1.2v2.2c0,1,0,1.2,0.4,1.2l0.3,0V32H156.9z"/>
	<path class="st0" d="M164.1,29.5c0-1.1-0.6-2.3-1.9-2.3c-1.2,0-1.7,1-1.7,2.2c0,1.2,0.6,2.3,1.9,2.3
		C163.6,31.7,164.1,30.7,164.1,29.5 M159.7,29.5c0-1.6,1.2-2.7,2.7-2.7c1.6,0,2.6,1.1,2.6,2.6c0,1.6-1.2,2.6-2.7,2.6
		C160.7,32.1,159.7,31.1,159.7,29.5"/>
	<path class="st0" d="M166.8,28L166.8,28l0,2.6c0,1.1,0.1,1.2,0.4,1.2l0.4,0V32h-1.9v-0.2l0.3,0c0.3,0,0.4-0.1,0.4-1.2l0-2.8
		c0-0.4-0.2-0.6-0.6-0.6l-0.2,0V27h1.2c0.1,0,0.3,0.1,0.4,0.3c0.8,0.8,2,2.2,2.8,3.3l0,0l0-2.4c0-0.9-0.1-1-0.4-1l-0.3,0V27h1.9v0.2
		l-0.3,0c-0.3,0-0.4,0.2-0.4,1.2V32c-0.1,0-0.2,0.1-0.3,0.1C169.2,30.8,168.2,29.6,166.8,28"/>
	<path class="st0" d="M173.8,28.3L173.8,28.3c-0.3,0.5-0.5,1.2-0.7,1.7l1.4,0L173.8,28.3z M171.3,32v-0.2c0.4-0.1,0.6-0.2,0.8-0.7
		l1.8-4.2c0.1,0,0.1,0,0.2,0c0.3,0.8,1.6,4.1,1.9,4.6c0.2,0.3,0.3,0.3,0.5,0.3V32h-2.2v-0.2l0.3,0c0.3,0,0.4-0.1,0.4-0.3
		c0-0.1-0.1-0.3-0.2-0.7l-0.2-0.6c-0.2,0-1.5,0-1.7,0l-0.2,0.4c-0.1,0.3-0.3,0.7-0.3,0.8c0,0.2,0.1,0.2,0.6,0.3V32H171.3z"/>
	<path class="st0" d="M177,31.8l0.3,0c0.3,0,0.4-0.2,0.4-1.2v-2.2c0-1-0.1-1.2-0.4-1.2l-0.3,0V27h2.2v0.2l-0.4,0
		c-0.3,0-0.4,0.2-0.4,1.2v2.1c0,1.1,0.1,1.2,0.5,1.2h0.6c0.5,0,0.8-0.4,1-1h0.2c0,0.3-0.1,1-0.2,1.3H177V31.8z"/>
	<path class="st0" d="M184.7,31c0,0.5,0.2,0.7,0.7,0.7c1.3,0,2.2-0.7,2.2-2.2c0-1.4-0.8-2.2-2.1-2.2c-0.2,0-0.6,0-0.9,0.1V31z
		 M183.2,31.8l0.3,0c0.3,0,0.4-0.2,0.4-1.2v-2.2c0-1-0.1-1.2-0.4-1.2l-0.3,0V27c1,0,1.8,0,2.4,0c1.5,0,2.9,0.6,2.9,2.4
		c0,1.5-1.1,2.6-3.1,2.6h-2.2V31.8z"/>
	<path class="st0" d="M189.1,32v-0.2l0.3,0c0.3,0,0.4-0.2,0.4-1.2v-2.2c0-1-0.1-1.2-0.4-1.2l-0.3,0V27h3.3c0,0.1,0,0.2,0,0.3
		c0,0.3,0,0.7-0.1,0.9h-0.2c0-0.6-0.2-0.9-0.7-0.9c-0.3,0-0.6,0-0.8,0.1v1.9h0.4c0.7,0,0.8-0.1,0.9-0.5h0.2l-0.1,1.4h-0.2l0-0.3
		c-0.1-0.3-0.2-0.4-0.8-0.4h-0.3v1c0,1,0.1,1.1,0.5,1.1h0.4c0.6,0,0.8-0.3,1-0.9h0.2c0,0.4-0.1,0.8-0.2,1.2H189.1z"/>
	<path class="st0" d="M193.3,31.8l0.3,0c0.3,0,0.4-0.2,0.4-1.2v-2.2c0-1-0.1-1.2-0.4-1.2l-0.3,0V27h2.2v0.2l-0.4,0
		c-0.3,0-0.4,0.2-0.4,1.2v2.1c0,1.1,0.1,1.2,0.5,1.2h0.6c0.5,0,0.8-0.4,1-1h0.2c0,0.3-0.1,1-0.2,1.3h-3.5V31.8z"/>
	<path class="st0" d="M199.6,32v-0.2l0.3,0c0.3,0,0.4-0.2,0.4-1.2v-2.2c0-1-0.1-1.2-0.4-1.2l-0.3,0V27h3.3c0,0.1,0,0.2,0,0.3
		c0,0.3,0,0.7-0.1,0.9h-0.2c0-0.6-0.2-0.9-0.7-0.9c-0.3,0-0.6,0-0.8,0.1v1.9h0.4c0.7,0,0.8-0.1,0.9-0.5h0.2l-0.1,1.4h-0.2l0-0.3
		c-0.1-0.3-0.2-0.4-0.8-0.4h-0.3v1c0,1,0.1,1.1,0.5,1.1h0.4c0.6,0,0.8-0.3,1-0.9h0.2c0,0.4-0.1,0.8-0.2,1.2H199.6z"/>
	<path class="st0" d="M203.6,32v-0.2l0.3,0c0.3,0,0.4-0.2,0.4-0.7c0-0.3,0.3-2.7,0.3-3.5c-0.1-0.3-0.3-0.4-0.4-0.4l-0.3,0V27h1.1
		c0.2,0,1,1.5,1.8,3.7h0c0.3-0.7,1.2-3,1.4-3.7h1.5v0.2l-0.3,0c-0.2,0-0.3,0.2-0.3,0.4c0,0.3,0.2,3.2,0.3,3.5
		c0.1,0.5,0.1,0.7,0.4,0.7l0.3,0V32h-2.1v-0.2l0.3,0c0.3,0,0.4-0.1,0.4-0.4c0-0.3-0.2-2.1-0.3-3.3h0c-0.4,1.1-1,2.6-1.4,3.7
		c-0.1,0-0.3,0-0.4,0c-0.6-1.6-1.2-2.9-1.5-3.7h0c-0.1,1.1-0.2,2.9-0.2,3.2c0,0.3,0.1,0.4,0.4,0.4l0.3,0V32H203.6z"/>
	<path class="st0" d="M213.7,28.4c0-0.7-0.4-1.1-1-1.1c-0.2,0-0.4,0-0.5,0.1v2.2c0.1,0,0.2,0,0.4,0
		C213.3,29.6,213.7,29.2,213.7,28.4 M210.7,32v-0.2l0.3,0c0.3,0,0.4-0.2,0.4-1.2v-2.2c0-1-0.1-1.2-0.4-1.2l-0.3,0V27
		c0.5,0,1.5,0,1.9,0c1.2,0,1.8,0.5,1.8,1.4c0,1-0.9,1.6-1.9,1.6c-0.1,0-0.3,0-0.4,0v0.7c0,1,0,1.2,0.4,1.2l0.4,0V32H210.7z"/>
	<path class="st0" d="M217.2,29.5c0.4,0,0.7-0.5,0.7-1.1c0-0.7-0.4-1.1-0.9-1.1c-0.2,0-0.4,0-0.5,0.1v2.1H217.2z M215,32v-0.2l0.3,0
		c0.3,0,0.4-0.2,0.4-1.2v-2.2c0-1-0.1-1.2-0.4-1.2l-0.3,0V27c0.5,0,1.5,0,1.9,0c1.2,0,1.8,0.5,1.8,1.3c0,0.7-0.5,1.1-0.9,1.3
		c0.7,1.3,1.2,2,1.5,2.1c0.1,0.1,0.2,0.1,0.4,0.1V32c-0.6,0.1-0.9,0.1-1,0.1c-0.1,0-0.2,0-0.3-0.1c-0.3-0.2-0.7-0.9-1.1-1.7
		c-0.1-0.3-0.2-0.4-0.5-0.4h-0.4v0.8c0,1,0,1.2,0.4,1.2l0.4,0V32H215z"/>
	<path class="st0" d="M220.2,32v-0.2l0.3,0c0.3,0,0.4-0.2,0.4-1.2v-2.2c0-1-0.1-1.2-0.4-1.2l-0.3,0V27h3.3c0,0.1,0,0.2,0,0.3
		c0,0.3,0,0.7-0.1,0.9h-0.2c0-0.6-0.2-0.9-0.7-0.9c-0.3,0-0.6,0-0.8,0.1v1.9h0.4c0.7,0,0.8-0.1,0.9-0.5h0.2l-0.1,1.4h-0.2l0-0.3
		c-0.1-0.3-0.2-0.4-0.8-0.4h-0.3v1c0,1,0.1,1.1,0.5,1.1h0.4c0.6,0,0.8-0.3,1-0.9h0.2c0,0.4-0.1,0.8-0.2,1.2H220.2z"/>
	<path class="st0" d="M225.5,28L225.5,28l0,2.6c0,1.1,0.1,1.2,0.4,1.2l0.4,0V32h-1.9v-0.2l0.3,0c0.3,0,0.4-0.1,0.4-1.2l0-2.8
		c0-0.4-0.2-0.6-0.6-0.6l-0.2,0V27h1.2c0.1,0,0.3,0.1,0.4,0.3c0.8,0.8,2,2.2,2.8,3.3l0,0l0-2.4c0-0.9-0.1-1-0.4-1l-0.3,0V27h1.9v0.2
		l-0.3,0c-0.3,0-0.4,0.2-0.4,1.2V32c-0.1,0-0.2,0.1-0.3,0.1C228,30.8,226.9,29.6,225.5,28"/>
	<path class="st0" d="M232,31c0,0.5,0.2,0.7,0.7,0.7c1.3,0,2.2-0.7,2.2-2.2c0-1.4-0.8-2.2-2.1-2.2c-0.2,0-0.6,0-0.9,0.1V31z
		 M230.5,31.8l0.3,0c0.3,0,0.4-0.2,0.4-1.2v-2.2c0-1-0.1-1.2-0.4-1.2l-0.3,0V27c1,0,1.8,0,2.4,0c1.5,0,2.9,0.6,2.9,2.4
		c0,1.5-1.1,2.6-3.1,2.6h-2.2V31.8z"/>
	<path class="st0" d="M236.4,32v-0.2l0.3,0c0.3,0,0.4-0.2,0.4-1.2v-2.2c0-1-0.1-1.2-0.4-1.2l-0.3,0V27h3.3c0,0.1,0,0.2,0,0.3
		c0,0.3,0,0.7-0.1,0.9h-0.2c0-0.6-0.2-0.9-0.7-0.9c-0.3,0-0.6,0-0.8,0.1v1.9h0.4c0.7,0,0.8-0.1,0.9-0.5h0.2l-0.1,1.4h-0.2l0-0.3
		c-0.1-0.3-0.2-0.4-0.8-0.4h-0.3v1c0,1,0.1,1.1,0.5,1.1h0.4c0.6,0,0.8-0.3,1-0.9h0.2c0,0.4-0.1,0.8-0.2,1.2H236.4z"/>
	<path class="st0" d="M242.1,31c0,0.5,0.2,0.7,0.7,0.7c1.3,0,2.2-0.7,2.2-2.2c0-1.4-0.8-2.2-2.1-2.2c-0.2,0-0.6,0-0.9,0.1V31z
		 M240.6,31.8l0.3,0c0.3,0,0.4-0.2,0.4-1.2v-2.2c0-1-0.1-1.2-0.4-1.2l-0.3,0V27c1,0,1.8,0,2.4,0c1.5,0,2.9,0.6,2.9,2.4
		c0,1.5-1.1,2.6-3.1,2.6h-2.2V31.8z"/>
	<path class="st0" d="M251.3,29.5c0-1.1-0.6-2.3-1.9-2.3c-1.2,0-1.7,1-1.7,2.2c0,1.2,0.6,2.3,1.9,2.3
		C250.8,31.7,251.3,30.7,251.3,29.5 M246.9,29.5c0-1.6,1.2-2.7,2.7-2.7c1.6,0,2.6,1.1,2.6,2.6c0,1.6-1.2,2.6-2.7,2.6
		C247.9,32.1,246.9,31.1,246.9,29.5"/>
	<path class="st0" d="M255,29.5c0.4,0,0.7-0.5,0.7-1.1c0-0.7-0.4-1.1-0.9-1.1c-0.2,0-0.4,0-0.5,0.1v2.1H255z M252.8,32v-0.2l0.3,0
		c0.3,0,0.4-0.2,0.4-1.2v-2.2c0-1-0.1-1.2-0.4-1.2l-0.3,0V27c0.5,0,1.5,0,1.9,0c1.2,0,1.8,0.5,1.8,1.3c0,0.7-0.5,1.1-0.9,1.3
		c0.7,1.3,1.2,2,1.5,2.1c0.1,0.1,0.2,0.1,0.4,0.1V32c-0.6,0.1-0.9,0.1-1,0.1c-0.1,0-0.2,0-0.3-0.1c-0.3-0.2-0.7-0.9-1.1-1.7
		c-0.1-0.3-0.2-0.4-0.5-0.4h-0.4v0.8c0,1,0,1.2,0.4,1.2l0.4,0V32H252.8z"/>
	<g>
		<path class="st0" d="M71.2,0.7c-8.5,0-15.3,6.9-15.3,15.5c0,8.6,6.9,15.5,15.3,15.5c8.5,0,15.3-6.9,15.3-15.5
			C86.5,7.6,79.7,0.7,71.2,0.7z M77.5,11c-1.5-0.1-2.3,0.1-2.3,0.1S75,9.7,74,7.8c-0.7-1.3-1.4-2.2-1.4-2.2s1.7-0.3,3.2-0.1
			c1.2,0.1,2.5,0.7,2.5,0.7s0.6,0.8,1.1,2.2c0.5,1.4,0.6,2.9,0.6,2.9S79,11,77.5,11z"/>
		<path class="st0" d="M52.7,16.2c0-5.7,3-10.6,7.5-13.3c-2.3-1.4-5-2.2-7.8-2.2c-8.5,0-15.3,6.9-15.3,15.5
			c0,8.6,6.9,15.5,15.3,15.5c2.9,0,5.5-0.8,7.8-2.2C55.7,26.9,52.7,21.9,52.7,16.2z M49.4,7.4c-1.3-0.1,0.5-4.5,7.2-3.7
			c0,0-3.3,2.3-4,4.6C52.6,8.4,51.1,7.6,49.4,7.4z"/>
		<path class="st0" d="M34.2,16.2c0-5.7,3-10.6,7.5-13.3c-2.3-1.4-5-2.2-7.8-2.2c-8.5,0-15.3,6.9-15.3,15.5
			c0,8.6,6.9,15.5,15.3,15.5c2.9,0,5.5-0.8,7.8-2.2C37.2,26.9,34.2,21.9,34.2,16.2z M30.9,7.4c-1.3-0.1,0.5-4.5,7.2-3.7
			c0,0-3.3,2.3-4,4.6C34,8.4,32.6,7.6,30.9,7.4z"/>
		<path class="st0" d="M15.6,16.2c0-5.7,3-10.6,7.5-13.3c-2.3-1.4-5-2.2-7.8-2.2C6.9,0.7,0,7.6,0,16.2c0,8.6,6.9,15.5,15.3,15.5
			c2.9,0,5.5-0.8,7.8-2.2C18.6,26.9,15.6,21.9,15.6,16.2z M12.3,7.4c-1.3-0.1,0.5-4.5,7.2-3.7c0,0-3.3,2.3-4,4.6
			C15.5,8.4,14.1,7.6,12.3,7.4z"/>
	</g>
</g>
</svg>
