<svg id="Layer_1" data-name="Layer 1" xmlns="http://www.w3.org/2000/svg" viewBox="0 0 213.37 76.52"><defs><style>.cls-1{fill:#fff;}</style></defs><title>pace</title><path class="cls-1" d="M175.56,0c-20.87,0-37.79,17.13-37.79,38.26a37.8,37.8,0,1,0,75.6,0A38,38,0,0,0,175.56,0Zm15.6,25.29a22.61,22.61,0,0,0-5.69.29,32.42,32.42,0,0,0-3-8A29.89,29.89,0,0,0,179,12.21a26.8,26.8,0,0,1,7.84-.26,27.6,27.6,0,0,1,6.27,1.68,20.16,20.16,0,0,1,2.74,5.32,35.29,35.29,0,0,1,1.49,7.17A33.67,33.67,0,0,0,191.16,25.29Z"/><path class="cls-1" d="M130,38.26A38.32,38.32,0,0,1,148.55,5.35,37.24,37.24,0,0,0,129.28,0,38,38,0,0,0,91.48,38.26a38,38,0,0,0,37.79,38.26,37.26,37.26,0,0,0,19.27-5.34A38.32,38.32,0,0,1,130,38.26Zm-8.12-21.69c-3.27-.28,1.29-11.2,17.66-9,0,0-8.19,5.59-9.91,11.41A21.14,21.14,0,0,0,121.89,16.57Z"/><path class="cls-1" d="M84.24,38.26A38.32,38.32,0,0,1,102.78,5.35,37.24,37.24,0,0,0,83.51,0a38,38,0,0,0-37.8,38.26,38,38,0,0,0,37.8,38.26,37.26,37.26,0,0,0,19.27-5.34A38.32,38.32,0,0,1,84.24,38.26ZM76.13,16.57c-3.27-.28,1.29-11.2,17.66-9,0,0-8.19,5.59-9.91,11.41A21.16,21.16,0,0,0,76.13,16.57Z"/><path class="cls-1" d="M38.53,38.26A38.32,38.32,0,0,1,57.07,5.35,37.26,37.26,0,0,0,37.79,0,38,38,0,0,0,0,38.26,38,38,0,0,0,37.79,76.52a37.28,37.28,0,0,0,19.27-5.34A38.32,38.32,0,0,1,38.53,38.26ZM30.41,16.57c-3.27-.28,1.29-11.2,17.66-9,0,0-8.18,5.59-9.91,11.41A21.14,21.14,0,0,0,30.41,16.57Z"/></svg>